<?xml version="1.0" standalone="no"?>
<!DOCTYPE svg PUBLIC "-//W3C//DTD SVG 20010904//EN"
 "http://www.w3.org/TR/2001/REC-SVG-20010904/DTD/svg10.dtd">
<svg version="1.0" xmlns="http://www.w3.org/2000/svg"
 width="225.000000pt" height="225.000000pt" viewBox="0 0 225.000000 225.000000"
 preserveAspectRatio="xMidYMid meet">

<g transform="translate(0.000000,225.000000) scale(0.100000,-0.100000)"
fill="#000000" stroke="none">
<path d="M1010 2240 c-459 -48 -846 -379 -968 -829 -24 -87 -26 -113 -27 -281
0 -163 3 -195 24 -275 106 -405 411 -710 816 -816 80 -21 112 -24 275 -24 168
1 194 3 281 27 357 97 647 365 772 713 81 227 81 512 0 740 -175 489 -663 799
-1173 745z m30 -140 c0 -13 7 -20 20 -20 13 0 20 7 20 20 0 11 5 20 10 20 6 0
10 -22 10 -50 0 -27 -4 -50 -10 -50 -5 0 -10 9 -10 20 0 13 -7 20 -20 20 -13
0 -20 -7 -20 -20 0 -11 -4 -20 -10 -20 -5 0 -10 23 -10 50 0 28 5 50 10 50 6
0 10 -9 10 -20z m145 -26 c17 -45 13 -75 -6 -41 -13 22 -28 22 -45 0 -7 -10
-15 -15 -18 -12 -8 8 32 99 43 99 5 0 16 -21 26 -46z m-200 -4 c30 -47 33 -70
6 -46 -18 16 -20 16 -41 -6 l-22 -23 7 50 c11 79 15 81 50 25z m305 25 c17
-20 5 -32 -15 -15 -20 16 -45 6 -45 -20 0 -25 29 -38 40 -19 5 7 12 10 16 6 4
-4 1 -15 -8 -23 -36 -36 -84 18 -58 65 13 25 52 28 70 6z m-383 -50 c11 -47
-1 -62 -17 -22 -8 21 -9 21 -9 -5 -1 -32 -15 -36 -31 -10 -10 15 -11 14 -6 -6
8 -40 -18 -19 -27 22 -12 49 -1 58 29 21 l24 -30 0 38 c0 53 24 48 37 -8z
m463 25 c0 -24 8 -25 32 -3 10 9 21 13 25 9 10 -10 -68 -85 -83 -79 -8 3 -11
9 -8 14 3 5 10 6 16 3 7 -4 8 7 3 35 -4 27 -3 41 4 41 6 0 11 -9 11 -20z m90
-29 c0 -23 26 -35 34 -15 3 8 10 14 15 14 6 0 3 -20 -6 -45 -15 -46 -40 -64
-29 -21 4 17 1 26 -10 30 -22 8 -21 9 -29 -16 -4 -14 -8 -18 -11 -11 -7 17 15
83 27 83 5 0 9 -9 9 -19z m-706 -17 c-5 -21 -2 -31 17 -45 32 -24 18 -35 -17
-13 -27 18 -27 18 -15 -3 6 -12 7 -24 3 -27 -10 -6 -42 57 -42 82 1 15 2 15
15 -2 11 -15 15 -16 15 -5 0 13 18 39 27 39 2 0 0 -12 -3 -26z m806 -10 c0 -3
-5 -14 -10 -25 -13 -23 -7 -24 26 -3 13 9 27 14 31 10 8 -7 -27 -86 -39 -86
-11 0 -10 7 2 31 13 23 8 24 -30 4 -34 -18 -37 -10 -13 40 14 30 33 47 33 29z
m-872 -38 c3 -11 -3 -25 -13 -32 -11 -8 -15 -19 -10 -33 11 -36 -10 -23 -34
20 -13 22 -21 42 -20 43 36 29 72 30 77 2z m986 -24 c15 -17 15 -21 0 -50 -17
-34 -39 -40 -69 -18 -18 13 -18 14 4 50 25 40 40 45 65 18z m-1069 -74 c4 -11
3 -18 -4 -18 -7 0 -14 6 -17 14 -9 22 -52 29 -71 11 -14 -15 -13 -19 12 -44
15 -16 22 -31 17 -35 -6 -3 -21 7 -35 23 -16 20 -28 26 -35 19 -6 -6 -12 -6
-16 0 -3 6 8 21 26 33 18 13 36 27 39 32 4 6 16 7 28 4 15 -4 21 0 21 12 0 33
15 33 21 -1 4 -18 10 -41 14 -50z m1165 0 c0 -12 -14 -10 -28 4 -6 6 -15 8
-19 4 -5 -4 1 -14 11 -22 25 -18 14 -29 -14 -14 -30 16 -39 2 -12 -19 13 -9
20 -20 16 -24 -4 -3 -19 4 -34 16 l-27 22 29 37 c29 37 30 38 53 20 14 -9 25
-20 25 -24z m-546 12 c169 -24 315 -97 437 -219 372 -372 276 -988 -192 -1231
-209 -108 -468 -111 -675 -7 -200 101 -344 275 -406 493 -31 111 -32 286 0
398 72 251 244 440 482 526 123 46 227 57 354 40z m616 -87 c0 -20 -30 -28
-53 -13 -15 9 -22 10 -25 1 -2 -6 -10 -11 -18 -11 -10 0 -5 13 17 40 l33 40
23 -22 c13 -12 23 -28 23 -35z m-1370 -8 c-7 -8 -17 -15 -22 -15 -6 0 -5 7 2
15 7 8 17 15 22 15 6 0 5 -7 -2 -15z m-35 -29 c25 -21 28 -28 19 -43 -12 -20
-54 -31 -54 -14 0 6 9 11 20 11 11 0 20 5 20 10 0 6 -8 10 -17 8 -12 -2 -17 3
-15 15 2 9 -2 17 -8 17 -5 0 -10 -9 -10 -20 0 -11 -4 -20 -10 -20 -15 0 -12
47 3 53 19 8 21 8 52 -17z m1465 -16 c11 -20 6 -40 -9 -40 -5 0 -8 8 -7 18 2
28 -48 23 -52 -5 -3 -18 2 -23 17 -23 12 0 21 -4 21 -10 0 -14 -33 -13 -48 2
-17 17 -15 38 5 60 22 24 60 23 73 -2z m-1520 -52 c29 -21 39 -38 23 -38 -5 0
-24 14 -43 30 -40 34 -24 41 20 8z m1560 -7 c0 -5 -10 -16 -22 -24 -23 -16
-22 -16 15 -16 20 -1 37 -5 37 -10 0 -9 -61 -51 -74 -51 -16 0 -4 19 17 26 20
7 19 9 -12 14 -45 7 -48 20 -8 47 35 24 47 28 47 14z m-1560 -26 c11 -13 11
-20 0 -40 -17 -32 -27 -31 -70 6 -34 29 -34 30 -9 25 17 -4 31 0 39 9 16 19
24 19 40 0z m-104 -60 c-5 -20 -1 -27 24 -40 16 -9 30 -20 30 -25 0 -14 -5
-13 -51 10 l-39 21 15 29 c19 36 29 39 21 5z m1729 -16 c9 -17 13 -34 9 -37
-4 -4 -9 -1 -11 5 -4 10 -12 9 -34 -3 -42 -21 -61 -11 -21 12 17 11 30 24 28
31 -4 10 2 23 10 23 2 0 11 -14 19 -31z m-1734 -63 c1 -6 0 -19 -1 -30 -1 -10
4 -22 11 -27 8 -4 11 -11 7 -14 -6 -6 -88 23 -88 32 0 9 23 48 33 55 13 8 37
-1 38 -16z m1772 -13 c2 -10 8 -26 12 -35 4 -11 3 -18 -3 -18 -6 0 -14 9 -17
20 -9 29 -27 25 -19 -5 4 -15 2 -25 -5 -25 -6 0 -11 6 -11 14 0 15 -18 31 -26
23 -2 -2 0 -16 5 -31 7 -17 7 -26 1 -26 -10 0 -30 41 -30 60 0 7 64 38 81 39
4 1 9 -7 12 -16z m-1800 -74 c34 -9 52 -29 26 -29 -5 0 -8 -4 -4 -10 9 -14 -5
-60 -19 -60 -27 0 -86 22 -86 32 0 6 9 8 20 5 13 -3 24 3 35 19 15 23 14 25
-10 34 -51 20 -24 27 38 9z m1836 -31 c11 -32 6 -52 -8 -29 -6 10 -17 10 -45
2 -28 -7 -36 -7 -33 2 2 6 18 16 36 21 20 6 30 14 27 23 -3 7 -1 13 3 13 5 0
14 -14 20 -32z m21 -68 c0 -5 -8 -10 -18 -10 -32 0 -33 -13 -2 -26 30 -13 41
-34 18 -34 -7 0 -31 -3 -52 -7 -28 -4 -37 -3 -32 5 4 7 19 12 34 12 27 1 26 1
-8 19 -42 23 -42 34 2 42 51 10 58 10 58 -1z m-1884 -25 c41 7 45 -7 7 -22
-26 -10 -26 -11 -5 -12 12 -1 22 -5 22 -11 0 -12 -15 -13 -59 -4 -32 7 -43 24
-14 24 15 0 15 1 0 18 -10 10 -14 22 -10 26 4 3 11 -1 16 -10 7 -12 17 -14 43
-9z m14 -265 c0 -5 -10 -10 -22 -10 -23 0 -22 -1 2 -13 14 -7 26 -22 28 -34 3
-17 -3 -24 -25 -28 -15 -4 -34 -9 -41 -11 -8 -2 -18 -1 -24 2 -15 9 12 24 45
24 17 0 27 5 27 15 0 19 -30 19 -58 -1 -19 -13 -22 -13 -22 -1 0 8 8 18 18 22
15 6 14 8 -8 17 l-25 11 25 7 c37 12 80 11 80 0z m1861 0 c16 0 29 -4 29 -10
0 -11 -62 -13 -97 -4 -35 10 -28 27 8 20 17 -3 44 -6 60 -6z m-41 -40 c0 -5
-4 -10 -10 -10 -5 0 -10 -7 -10 -15 0 -23 16 -18 29 11 14 33 45 28 49 -7 3
-26 -23 -58 -36 -44 -4 4 -1 10 6 12 6 3 12 14 12 26 0 20 -2 20 -24 -8 -20
-25 -26 -28 -40 -16 -19 16 -20 33 -4 49 15 15 28 16 28 2z m-1797 -87 c6 -32
-9 -55 -33 -51 -9 2 -24 -3 -33 -11 -15 -11 -17 -11 -17 2 0 8 7 20 15 27 19
16 10 30 -18 30 -24 0 -13 16 18 23 49 12 63 7 68 -20z m1765 -8 c-6 -30 8
-34 17 -5 9 29 28 25 21 -5 -4 -14 -2 -25 4 -25 5 0 12 11 16 25 3 14 11 25
16 25 6 0 8 -10 4 -22 -3 -13 -6 -29 -6 -37 0 -10 -10 -12 -41 -8 -23 3 -45 9
-49 14 -11 11 0 63 12 63 6 0 8 -11 6 -25z m-18 -59 c0 -8 16 -20 35 -26 19
-6 35 -16 35 -21 0 -12 -12 -11 -46 1 -20 8 -29 8 -35 -2 -13 -20 -20 -4 -13
30 6 32 24 45 24 18z m-1730 -10 c13 -16 10 -58 -4 -56 -5 1 -12 -3 -15 -8
-13 -22 -45 -17 -60 10 -14 24 -14 28 3 47 22 24 58 27 76 7z m1747 -72 c19
-8 31 -19 28 -24 -6 -10 -105 29 -105 42 0 10 21 5 77 -18z m-1717 -2 c0 -9
-64 -42 -80 -42 -23 0 -7 18 28 33 45 18 52 19 52 9z m1675 -22 c3 -5 15 -10
26 -10 11 0 22 -6 25 -14 9 -23 -15 -56 -39 -56 -22 0 -22 1 3 20 14 10 21 22
17 26 -4 4 -16 -1 -27 -11 -23 -20 -50 -14 -50 13 0 31 32 53 45 32z m-1650
-29 c18 -36 9 -44 -36 -31 -19 6 -35 10 -37 10 -1 0 2 -9 8 -19 12 -24 13 -31
1 -31 -8 0 -41 54 -41 68 0 2 20 1 44 -2 41 -7 44 -6 39 14 -8 29 4 25 22 -9z
m45 -39 c0 -7 -85 -62 -95 -62 -17 0 2 22 38 44 44 27 57 31 57 18z m1580 -18
c0 -8 10 -14 26 -14 14 0 23 -4 19 -10 -3 -5 -16 -10 -29 -10 -31 0 -39 -11
-18 -26 9 -7 14 -15 10 -19 -4 -4 -21 3 -38 15 -17 12 -33 21 -34 19 -2 -2 -9
-15 -15 -27 -15 -28 -9 -39 9 -17 18 22 32 18 20 -6 -15 -27 -2 -40 15 -15 8
10 18 16 24 15 6 -2 0 -17 -13 -34 l-24 -29 -36 28 -36 27 22 -45 c12 -25 19
-48 16 -51 -2 -3 -25 2 -49 10 l-43 16 29 -31 c16 -16 25 -33 22 -37 -10 -9
-88 68 -80 80 3 5 9 4 13 -3 5 -8 10 -9 14 -1 5 7 15 7 33 0 33 -12 40 -5 21
23 -14 21 -13 25 11 58 14 19 29 37 34 38 4 2 7 9 7 16 0 7 9 22 20 34 21 22
50 20 50 -4z m-1564 -46 c3 -11 1 -25 -5 -31 -8 -8 -11 -5 -11 11 0 12 -4 22
-10 22 -5 0 -7 -13 -4 -30 5 -22 2 -31 -11 -36 -22 -9 -60 28 -52 50 9 24 27
19 24 -5 -1 -12 4 -24 11 -26 9 -4 11 2 6 21 -12 49 37 72 52 24z m44 -57 c11
-16 16 -32 11 -35 -5 -4 -11 0 -14 6 -3 9 -13 6 -36 -10 -18 -13 -36 -21 -39
-17 -4 4 6 16 21 27 19 14 26 26 22 39 -9 29 11 23 35 -10z m43 -47 c8 -8 -34
-94 -46 -94 -5 0 -6 7 -3 16 8 21 -11 45 -30 37 -8 -3 -14 -1 -14 5 0 5 17 16
38 25 45 18 47 19 55 11z m39 -76 l-5 -33 22 19 c36 32 37 8 1 -29 -38 -40
-52 -37 -43 8 l6 32 -22 -19 c-11 -11 -24 -16 -28 -12 -8 8 57 77 67 71 4 -2
5 -19 2 -37z m1261 -4 c16 -19 26 -38 23 -41 -3 -4 -22 -1 -42 5 l-36 11 22
-24 c13 -13 17 -25 11 -29 -9 -6 -61 52 -61 69 0 4 17 4 37 0 37 -7 37 -6 20
12 -9 11 -17 23 -17 26 0 16 17 5 43 -29z m-94 -24 c4 0 16 -15 26 -34 16 -29
17 -37 6 -50 -18 -22 -44 -20 -66 4 -31 35 -22 97 13 85 8 -3 17 -5 21 -5z
m-1089 -55 c14 -16 10 -18 -14 -9 -9 3 -16 10 -16 15 0 14 16 11 30 -6z m85
-5 c17 -11 38 -17 48 -14 9 3 17 0 17 -6 0 -6 4 -9 9 -5 19 11 22 -36 4 -67
-23 -40 -34 -43 -63 -20 -22 17 -22 19 -6 49 14 29 14 32 -2 38 -9 3 -18 1
-20 -4 -2 -6 -12 -21 -22 -33 -24 -29 -26 -6 -3 29 13 19 14 28 5 31 -13 4
-17 22 -4 22 4 0 21 -9 37 -20z m925 -21 c0 -5 -11 -9 -25 -9 -14 0 -25 -4
-25 -9 0 -5 15 -8 33 -7 26 1 33 -3 35 -22 2 -16 -3 -25 -20 -31 -25 -9 -48
-4 -48 10 0 5 11 9 25 9 14 0 25 5 25 11 0 7 -9 9 -24 5 -15 -4 -28 0 -37 10
-11 14 -10 19 9 35 22 17 52 16 52 -2z m-70 -64 l35 -36 -35 3 c-29 2 -34 0
-32 -14 4 -22 -14 -24 -22 -2 -11 29 -7 84 7 84 7 0 28 -16 47 -35z m-699 5
c22 -19 23 -21 7 -33 -11 -9 -15 -21 -11 -35 3 -13 1 -22 -6 -22 -6 0 -13 11
-17 25 -7 28 -22 33 -30 10 -10 -24 -26 -17 -18 8 23 75 34 82 75 47z m623
-30 c9 -22 16 -43 16 -45 0 -11 -28 -4 -40 10 -19 22 -31 18 -24 -9 4 -18 1
-25 -15 -29 -12 -3 -24 -1 -27 4 -9 15 -44 10 -44 -6 0 -8 -5 -15 -11 -15 -11
0 -4 88 8 100 3 3 21 -13 40 -35 19 -22 32 -32 29 -22 -24 72 -18 82 30 45 22
-18 27 -19 21 -5 -4 9 -10 24 -13 32 -3 8 -2 15 4 15 5 0 17 -18 26 -40z
m-554 0 c29 19 46 11 20 -9 -22 -17 -23 -22 -12 -46 7 -15 11 -29 10 -31 -7
-6 -24 12 -35 36 l-12 25 -7 -22 c-3 -13 -11 -23 -16 -23 -11 0 -5 31 13 77
11 27 12 27 18 6 5 -17 10 -20 21 -13z m58 -32 c-10 -57 -14 -65 -25 -55 -9 9
17 118 26 112 5 -2 4 -28 -1 -57z m40 11 c7 -19 9 -19 21 -5 15 18 111 23 111
6 0 -5 -13 -10 -30 -10 -16 0 -30 -4 -30 -10 0 -5 11 -10 25 -10 14 0 25 -4
25 -10 0 -5 -11 -10 -25 -10 -14 0 -25 -4 -25 -10 0 -5 14 -10 30 -10 17 0 30
-5 30 -11 0 -6 -16 -9 -37 -7 -36 3 -38 5 -41 41 -3 38 -4 38 -23 21 -10 -9
-19 -25 -19 -36 0 -31 -18 -20 -22 15 -3 17 -8 40 -13 50 -4 10 -3 17 4 17 7
0 15 -9 19 -21z m287 -13 c4 -19 5 -42 2 -53 -3 -16 -5 -15 -15 7 -10 24 -11
24 -11 3 -1 -27 -16 -30 -30 -5 -9 15 -10 14 -11 -7 0 -37 -17 -13 -25 37 -8
53 13 58 38 10 13 -28 16 -29 16 -11 2 57 27 71 36 19z"/>
<path d="M955 2060 c-3 -5 -1 -10 4 -10 6 0 11 5 11 10 0 6 -2 10 -4 10 -3 0
-8 -4 -11 -10z"/>
<path d="M645 1969 c-4 -6 -5 -13 -2 -16 7 -7 27 6 27 18 0 12 -17 12 -25 -2z"/>
<path d="M1640 1940 c0 -13 18 -22 24 -11 3 5 -1 11 -9 15 -8 3 -15 1 -15 -4z"/>
<path d="M1620 1905 c0 -8 7 -15 15 -15 8 0 15 4 15 9 0 5 -7 11 -15 15 -9 3
-15 0 -15 -9z"/>
<path d="M940 1822 c0 -14 -35 -36 -133 -84 -73 -36 -138 -72 -145 -80 -6 -8
-16 -39 -21 -69 -5 -30 -9 -46 -10 -36 -1 23 -12 22 -46 -4 -25 -21 -27 -25
-22 -88 2 -36 2 -51 0 -33 -4 29 -7 32 -26 26 -12 -4 -35 -16 -52 -27 -16 -11
-31 -21 -32 -22 -1 0 4 -22 12 -49 8 -26 21 -100 30 -164 17 -129 28 -178 39
-175 23 7 54 43 52 59 -2 10 -1 14 1 7 2 -6 11 -14 19 -17 11 -4 12 -2 4 13
-8 17 -6 20 20 25 100 19 93 15 86 49 -4 17 -11 34 -17 38 -6 3 5 9 23 12 18
3 81 26 138 52 58 26 122 53 142 61 36 12 38 12 43 -9 8 -35 65 -319 65 -326
0 -3 -57 52 -128 122 l-127 127 -135 -135 -135 -135 103 -102 102 -103 66 66
66 67 -27 31 c-16 17 -33 31 -39 31 -5 0 -24 -14 -41 -30 l-31 -30 -34 35 -34
35 69 70 70 70 105 -105 105 -105 -103 -103 -103 -104 133 -137 133 -137 135
135 135 136 -105 105 -105 105 105 105 105 105 70 -70 69 -70 -34 -35 -34 -35
-33 32 -33 32 -35 -34 -35 -34 62 -63 c34 -35 67 -62 73 -62 5 1 53 46 105
101 l94 98 -134 136 -135 135 -127 -130 c-71 -71 -128 -125 -128 -121 0 14 71
344 74 348 2 2 60 -22 129 -52 68 -31 145 -61 171 -68 25 -7 42 -15 37 -18 -4
-3 -11 -17 -15 -33 -7 -30 8 -41 75 -52 32 -5 36 -9 32 -28 -4 -22 -4 -22 12
-2 17 20 17 20 11 -1 -5 -15 0 -24 19 -34 14 -7 25 -17 25 -22 0 -4 4 -8 9 -8
9 0 24 75 41 207 6 45 17 105 24 134 13 50 13 53 -8 71 -11 9 -36 23 -53 30
-28 10 -33 17 -33 44 0 23 -8 39 -27 54 -15 11 -32 19 -39 16 -7 -3 -14 10
-17 36 -3 22 -12 47 -20 56 -9 9 -74 46 -146 82 -95 46 -131 69 -131 82 0 10
-4 18 -10 18 -5 0 -10 -2 -10 -4 0 -2 -27 -137 -60 -299 -33 -163 -60 -299
-60 -304 0 -4 -5 0 -11 10 -12 20 -49 23 -67 5 -7 -7 -12 -9 -12 -6 0 7 -109
545 -117 576 -6 26 -23 30 -23 4z m-108 -227 c5 -6 8 -5 8 4 0 11 3 11 15 1 8
-7 15 -9 15 -5 0 4 8 1 17 -6 11 -10 14 -10 9 -1 -14 24 2 12 19 -14 11 -18
13 -24 4 -19 -8 5 -5 -2 6 -15 12 -14 14 -20 5 -15 -13 8 -13 7 -1 -8 11 -14
11 -17 0 -17 -11 0 -11 -2 1 -10 11 -7 11 -10 2 -10 -7 0 -11 -4 -7 -9 3 -6
-3 -14 -12 -20 -11 -6 -13 -11 -5 -11 16 0 -27 -47 -48 -52 -8 -2 -18 -7 -22
-13 -5 -6 -8 -4 -8 5 0 13 -1 13 -10 0 -9 -13 -11 -13 -20 0 -5 8 -10 10 -10
3 0 -19 -36 -3 -57 25 -21 30 -24 113 -4 120 6 2 9 8 5 13 -3 5 2 12 10 15 9
3 13 10 10 15 -5 8 8 12 22 7 3 -2 10 5 15 14 10 19 29 20 41 3z m664 -29 c19
-19 34 -39 34 -45 0 -5 -11 1 -25 14 -32 32 -70 32 -91 0 -31 -47 12 -125 68
-125 17 0 27 -4 23 -10 -10 -15 -68 -12 -93 6 -53 37 -69 129 -30 171 32 34
73 30 114 -11z m131 -163 c-2 -21 -4 -6 -4 32 0 39 2 55 4 38 2 -18 2 -50 0
-70z m-1000 -35 c-2 -24 -4 -7 -4 37 0 44 2 63 4 43 2 -21 2 -57 0 -80z m970
55 c-5 -7 -6 -16 -3 -21 3 -5 -8 -9 -23 -9 -20 0 -28 4 -24 14 3 7 0 20 -7 28
-10 12 -9 15 4 15 9 0 16 7 16 15 0 10 6 8 23 -8 15 -14 20 -26 14 -34z m90
-35 c-2 -13 -4 -5 -4 17 -1 22 1 32 4 23 2 -10 2 -28 0 -40z m-1110 -115 c-2
-21 -4 -6 -4 32 0 39 2 55 4 38 2 -18 2 -50 0 -70z m1100 -56 c-2 -23 -3 -1
-3 48 0 50 1 68 3 42 2 -26 2 -67 0 -90z m-40 6 c-2 -21 -4 -6 -4 32 0 39 2
55 4 38 2 -18 2 -50 0 -70z m-1020 -40 c-2 -16 -4 -3 -4 27 0 30 2 43 4 28 2
-16 2 -40 0 -55z m60 1 c-3 -3 -12 -4 -19 -1 -8 3 -5 6 6 6 11 1 17 -2 13 -5z
m920 0 c-3 -3 -12 -4 -19 -1 -8 3 -5 6 6 6 11 1 17 -2 13 -5z m38 -14 c3 -6
-1 -7 -9 -4 -18 7 -21 14 -7 14 6 0 13 -4 16 -10z m0 -30 c-3 -5 -14 -10 -23
-9 -14 0 -13 2 3 9 27 11 27 11 20 0z m-433 -387 l68 -67 -72 -73 -73 -73 -72
72 -73 72 67 68 c37 38 72 68 77 68 6 0 41 -30 78 -67z"/>
<path d="M800 1510 c-11 -8 -8 -9 12 -4 33 7 53 -3 39 -20 -7 -9 -4 -12 14
-12 31 0 31 3 3 27 -26 21 -46 23 -68 9z"/>
<path d="M765 1441 c-7 -12 27 -31 52 -30 10 0 3 5 -15 10 -18 5 -30 14 -27
19 4 6 4 10 1 10 -3 0 -7 -4 -11 -9z"/>
<path d="M1028 705 c-8 -8 3 -55 13 -55 5 0 9 14 9 30 0 28 -9 38 -22 25z"/>
<path d="M1074 699 c-4 -7 0 -17 10 -25 13 -9 14 -13 4 -17 -9 -2 -8 -4 2 -3
9 1 15 11 15 25 0 27 -19 39 -31 20z m26 -9 c0 -5 -4 -10 -10 -10 -5 0 -10 5
-10 10 0 6 5 10 10 10 6 0 10 -4 10 -10z"/>
<path d="M1124 699 c-4 -7 0 -17 10 -25 13 -9 14 -13 4 -18 -7 -3 -4 -5 7 -3
14 2 20 10 20 27 0 27 -28 40 -41 19z"/>
<path d="M1187 703 c-12 -11 -8 -23 8 -23 18 0 20 -16 3 -23 -8 -3 -6 -6 5 -6
11 -1 17 6 17 19 0 11 -6 20 -12 20 -9 0 -8 4 2 10 13 8 13 10 -1 10 -9 0 -19
-3 -22 -7z"/>
<path d="M1785 1820 c-3 -6 1 -13 10 -16 19 -8 30 0 20 15 -8 14 -22 14 -30 1z"/>
<path d="M347 1646 c-6 -16 2 -28 14 -20 12 7 11 34 0 34 -5 0 -11 -6 -14 -14z"/>
<path d="M230 1505 c0 -8 4 -15 9 -15 5 0 11 7 15 15 3 9 0 15 -9 15 -8 0 -15
-7 -15 -15z"/>
<path d="M225 1379 c-4 -6 -5 -13 -2 -16 7 -7 27 6 27 18 0 12 -17 12 -25 -2z"/>
<path d="M210 923 c0 -5 4 -15 10 -23 11 -18 25 -7 17 15 -6 15 -27 21 -27 8z"/>
<path d="M206 824 c-7 -17 0 -34 14 -34 5 0 7 7 4 15 -4 8 -1 15 5 15 6 0 11
-4 11 -10 0 -5 5 -10 10 -10 6 0 10 9 10 20 0 25 -45 28 -54 4z"/>
<path d="M1955 729 c-11 -17 1 -21 15 -4 8 9 8 15 2 15 -6 0 -14 -5 -17 -11z"/>
<path d="M1911 656 c-8 -9 -11 -19 -7 -23 9 -9 29 13 24 27 -2 8 -8 7 -17 -4z"/>
<path d="M1640 383 c1 -25 24 -53 44 -53 20 0 20 14 0 45 -19 29 -44 33 -44 8z"/>
<path d="M709 296 c-6 -13 -8 -33 -5 -43 7 -17 9 -16 27 6 11 13 19 31 17 39
-5 26 -27 25 -39 -2z"/>
<path d="M790 261 c0 -12 28 -22 35 -12 3 5 -2 12 -11 15 -21 8 -24 8 -24 -3z"/>
</g>
</svg>
